<svg width="31" height="31" viewBox="0 0 31 31" fill="none" xmlns="http://www.w3.org/2000/svg">
<path d="M15.4853 21.9799C17.2079 21.9799 18.86 21.2956 20.078 20.0776C21.2961 18.8595 21.9804 17.2075 21.9804 15.4848C21.9804 13.7622 21.2961 12.1102 20.078 10.8921C18.86 9.67405 17.2079 8.98975 15.4853 8.98975C13.7627 8.98975 12.1106 9.67405 10.8926 10.8921C9.6745 12.1102 8.9902 13.7622 8.9902 15.4848C8.9902 17.2075 9.6745 18.8595 10.8926 20.0776C12.1106 21.2956 13.7627 21.9799 15.4853 21.9799Z" stroke="#FFB33D" stroke-width="1.5" stroke-linecap="round" stroke-linejoin="round"/>
<path d="M0.871324 21.9802V8.98997C0.871324 6.83671 1.7267 4.77164 3.24929 3.24906C4.77187 1.72647 6.83694 0.871094 8.9902 0.871094H21.9804C24.1337 0.871094 26.1987 1.72647 27.7213 3.24906C29.2439 4.77164 30.0993 6.83671 30.0993 8.98997V21.9802C30.0993 24.1334 29.2439 26.1985 27.7213 27.7211C26.1987 29.2437 24.1337 30.099 21.9804 30.099H8.9902C6.83694 30.099 4.77187 29.2437 3.24929 27.7211C1.7267 26.1985 0.871324 24.1334 0.871324 21.9802Z" stroke="#FFB33D" stroke-width="1.5"/>
<path d="M24.4161 6.57201L24.4336 6.55273" stroke="#FFB33D" stroke-width="1.5" stroke-linecap="round" stroke-linejoin="round"/>
</svg>
