<svg width="24" height="27" viewBox="0 0 24 27" fill="none" xmlns="http://www.w3.org/2000/svg">
<path d="M19.0408 4.23C17.9945 3.05943 17.4179 1.55615 17.4184 0H12.6888V18.6C12.6523 19.6065 12.2187 20.5599 11.4792 21.2594C10.7398 21.9589 9.75222 22.3499 8.72449 22.35C6.55102 22.35 4.7449 20.61 4.7449 18.45C4.7449 15.87 7.28571 13.935 9.90306 14.73V9.99C4.62245 9.3 0 13.32 0 18.45C0 23.445 4.22449 27 8.70918 27C13.5153 27 17.4184 23.175 17.4184 18.45V9.015C19.3362 10.3648 21.6388 11.089 24 11.085V6.45C24 6.45 21.1224 6.585 19.0408 4.23Z" fill="#FFB33D"/>
</svg>
